<svg xmlns="http://www.w3.org/2000/svg" fill-rule="evenodd" stroke-linejoin="round" stroke-miterlimit="2"
  clip-rule="evenodd" viewBox="0 0 32 32">
  <path fill="none" d="M0 0h32v32H0z" />
  <path
    d="M30 10a3 3 0 0 0-3-3H5a3 3 0 0 0-3 3v12a3 3 0 0 0 3 3h22a3.002 3.002 0 0 0 3-3V10Zm-2 0c0-.552-.448-1-1-1H5a1 1 0 0 0-1 1v12c0 .553.448 1 1 1h22a1 1 0 0 0 1-1V10Z" />
  <path d="M24 1v30a1 1 0 0 0 2 0V1a1 1 0 0 0-2 0Z" />
  <path
    d="M21 2h8a1 1 0 0 0 0-2h-8a1 1 0 0 0 0 2ZM21 32h8a1 1 0 0 0 0-2h-8a1 1 0 0 0 0 2ZM8.29 14.296 6.296 16.29a1 1 0 0 0 1.414 1.414l1.994-1.994a1 1 0 0 0-1.414-1.414Z" />
  <path
    d="M9.704 16.29 7.71 14.296a1 1 0 0 0-1.414 1.414l1.994 1.995a1 1 0 0 0 1.414-1.415ZM14.29 14.296l-1.994 1.994a1 1 0 0 0 1.414 1.415l1.994-1.995a1 1 0 0 0-1.414-1.414Z" />
  <path
    d="m15.704 16.29-1.994-1.994a1 1 0 0 0-1.414 1.414l1.994 1.995a1 1 0 0 0 1.414-1.414ZM20.29 14.296l-1.994 1.995a1 1 0 0 0 1.414 1.414l1.994-1.995a1 1 0 0 0-1.414-1.414Z" />
  <path d="m21.704 16.29-1.994-1.994a1 1 0 0 0-1.414 1.414l1.994 1.995a1 1 0 0 0 1.414-1.414Z" />
</svg>